<svg width="612" height="298" xmlns="http://www.w3.org/2000/svg" xmlns:xlink="http://www.w3.org/1999/xlink" xml:space="preserve" overflow="hidden"><defs><clipPath id="clip0"><rect x="126" y="332" width="612" height="298"/></clipPath></defs><g clip-path="url(#clip0)" transform="translate(-126 -332)"><path d="M131.163 168.856C131.302 156.895 141.455 151.47 150.914 151.609 156.338 151.609 161.763 153.278 164.266 156.895L158.842 159.398C158.146 155.643 154.53 153.556 150.635 153.556 143.264 153.556 137.7 160.511 137.7 168.995 137.561 176.924 142.707 184.156 150.357 184.156 153.278 184.156 155.365 183.183 156.755 181.792L156.895 172.334C156.895 170.525 156.06 170.247 155.504 170.247L153.556 170.247C152.305 170.247 149.94 170.525 148.966 172.89 148.549 174.003 147.158 173.446 147.158 173.446L148.132 168.717 165.24 168.856C165.24 168.856 165.379 170.386 164.823 170.386 164.405 170.386 163.293 170.525 163.293 172.473L163.154 182.487C160.511 184.852 155.504 186.104 150.775 185.965 141.177 185.825 131.163 180.123 131.163 168.856Z" stroke="#FFCE00" stroke-width="0.695455" stroke-miterlimit="10" fill="#FFD700" transform="matrix(1 0 0 1.00116 126 332)"/><path d="M213.226 152.026C222.963 152.165 231.169 159.676 231.169 168.995 231.03 178.454 224.075 186.382 212.948 186.382 202.099 186.243 195.145 178.175 195.145 168.717 195.284 159.259 203.49 151.887 213.226 152.026ZM201.543 168.717C201.404 177.341 205.994 184.435 213.087 184.574 220.181 184.574 225.049 177.619 225.049 168.995 225.188 160.372 220.737 153.974 213.365 153.835 206.272 153.695 201.543 160.094 201.543 168.717Z" stroke="#FFCE00" stroke-width="0.695455" stroke-miterlimit="10" fill="#FFD700" transform="matrix(1 0 0 1.00116 126 332)"/><path d="M260.517 185.13C260.935 185.13 262.047 184.991 262.047 183.044L262.325 155.504C262.325 153.556 261.213 153.417 260.795 153.417 260.239 153.417 260.517 151.887 260.517 151.887L276.652 152.026C282.076 152.026 288.057 153.278 287.918 159.537 287.918 163.849 285.136 165.657 281.659 166.214 286.945 166.909 291.535 169.274 291.535 176.506 291.395 185.408 284.719 186.799 278.182 186.799L260.378 186.66C260.378 186.799 259.961 185.13 260.517 185.13ZM268.585 183.183C268.585 185.13 269.975 185.269 270.254 185.269L275.261 185.269C279.851 185.269 284.997 184.713 285.136 176.506 285.275 168.3 279.99 167.326 275.4 167.326 274.705 167.326 271.227 167.326 268.724 167.326L268.585 183.183ZM268.724 165.657 273.453 165.657C277.347 165.657 281.798 165.101 281.798 159.398 281.798 153.974 278.321 153.556 274.565 153.556L270.393 153.556C269.836 153.556 268.863 153.835 268.863 155.643L268.724 165.657Z" stroke="#FFCE00" stroke-width="0.695455" stroke-miterlimit="10" fill="#FFD700" transform="matrix(1 0 0 1.00116 126 332)"/><path d="M317.823 187.216C317.823 187.216 318.101 185.686 318.657 185.686 319.075 185.686 320.187 185.547 320.883 183.6L331.454 154.252C331.315 154.113 331.175 153.974 331.036 153.974 330.202 153.974 330.202 152.583 330.202 152.583L335.765 152.583C336.878 152.583 337.435 153.835 338.13 155.643L347.588 183.878C348.284 185.825 349.396 185.965 349.814 185.965 350.37 185.965 350.648 187.495 350.648 187.495L341.19 187.355C341.19 187.355 340.355 185.825 340.912 185.825 341.468 185.825 342.442 185.686 341.746 183.739L338.686 174.42 326.307 174.281 322.969 183.461C322.274 185.408 323.386 185.547 323.804 185.547 324.36 185.547 323.525 187.077 323.525 187.077L317.823 187.216ZM326.864 172.751 338.13 172.89C338.13 172.89 332.705 156.755 332.705 156.477L326.864 172.751Z" stroke="#FFCE00" stroke-width="0.695455" stroke-miterlimit="10" fill="#FFD700" transform="matrix(1 0 0 1.00116 126 332)"/><path d="M380.831 153 389.872 153.139 404.059 177.619C404.198 168.717 404.337 156.895 404.337 156.895 404.337 154.947 403.225 154.808 402.807 154.808 402.251 154.808 402.529 153.278 402.529 153.278L407.954 153.278C407.954 153.278 408.232 154.808 407.675 154.808 407.119 154.808 406.145 154.947 406.006 156.895L405.728 188.051 403.92 188.051C403.92 188.051 384.447 155.365 384.308 155.086 384.308 155.504 384.03 184.156 384.03 184.156 384.03 186.243 385.143 186.243 385.56 186.243 386.116 186.243 385.838 187.912 385.838 187.912L380.553 187.912C380.553 187.912 380.275 186.243 380.831 186.243 381.248 186.243 382.361 186.104 382.361 184.156L382.639 156.755C382.639 154.808 381.526 154.669 381.109 154.669 380.414 154.669 380.831 153 380.831 153Z" stroke="#FFCE00" stroke-width="0.695455" stroke-miterlimit="10" fill="#FFD700" transform="matrix(1 0 0 1.00116 126 332)"/><path d="M437.997 153.556 448.012 153.695C448.012 153.695 448.29 155.225 447.734 155.225 447.316 155.225 446.204 155.365 446.204 157.312L445.925 184.713C445.925 186.66 447.038 186.799 447.455 186.799 448.012 186.799 447.734 188.329 447.734 188.329L437.719 188.19C437.719 188.19 437.441 186.66 437.997 186.66 438.415 186.66 439.527 186.521 439.527 184.574L439.805 157.034C439.805 155.086 438.693 154.947 438.275 154.947 437.719 155.086 437.997 153.556 437.997 153.556Z" stroke="#FFCE00" stroke-width="0.695455" stroke-miterlimit="10" fill="#FFD700" transform="matrix(1 0 0 1.00116 126 332)"/><path d="M477.638 153.835 487.653 153.974C487.653 153.974 487.931 155.504 487.375 155.504 486.957 155.504 485.845 155.504 485.845 157.59L485.705 177.341C485.705 182.348 486.957 187.077 495.164 187.216 501.84 187.216 505.039 184.435 505.178 177.48L505.317 157.729C505.317 155.782 504.205 155.643 503.787 155.643 503.231 155.643 503.509 154.113 503.509 154.113L508.934 154.113C508.934 154.113 509.212 155.643 508.655 155.643 508.238 155.643 507.125 155.782 507.125 157.729 507.125 157.729 506.986 176.924 506.986 177.48 506.986 184.713 503.648 188.746 494.746 188.746 485.845 188.607 479.307 185.408 479.446 177.341L479.585 157.59C479.585 155.643 478.473 155.504 478.055 155.504 477.36 155.504 477.638 153.835 477.638 153.835Z" stroke="#FFCE00" stroke-width="0.695455" stroke-miterlimit="10" fill="#FFD700" transform="matrix(1 0 0 1.00116 126 332)"/><path d="M167.326 254.397C167.326 260.696 160.29 265.803 151.609 265.803 142.929 265.803 135.892 260.696 135.892 254.397 135.892 248.098 142.929 242.992 151.609 242.992 160.29 242.992 167.326 248.098 167.326 254.397Z" stroke="#FFD700" stroke-width="2.78182" stroke-miterlimit="10.0002" fill="none" transform="matrix(0.9992 -0.040002 0.0399556 1.00036 115.955 338.271)"/><path d="M200.152 239.793 253.841 253.841 199.874 264.551" stroke="#FFD700" stroke-width="2.78182" stroke-miterlimit="10" fill="none" transform="matrix(1 0 0 1.00116 126 332)"/><path d="M306.846 254.685C306.846 261.445 303.234 266.925 298.778 266.925 294.323 266.925 290.711 261.445 290.711 254.685 290.711 247.925 294.323 242.444 298.778 242.444 303.234 242.444 306.846 247.925 306.846 254.685Z" stroke="#FFD700" stroke-width="2.78206" stroke-miterlimit="10.0004" fill="none" transform="matrix(0.00852321 -1.00112 0.999964 0.0085331 167.624 883.949)"/><path d="M311.713 254.962C311.713 264.948 305.859 273.044 298.638 273.044 291.417 273.044 285.563 264.948 285.563 254.962 285.563 244.975 291.417 236.879 298.638 236.879 305.859 236.879 311.713 244.975 311.713 254.962Z" stroke="#FFD700" stroke-width="2.78204" stroke-miterlimit="10.0003" fill="none" transform="matrix(0.00793401 -1.00113 0.999968 0.00794322 167.343 884.12)"/><path d="M374.85 241.879 391.541 255.371 374.294 268.724 357.742 255.232Z" stroke="#FFD700" stroke-width="2.78182" stroke-miterlimit="9.9999" fill="none" transform="matrix(1 0 0 1.00116 126 332)"/><path d="M5.00727 295.012C10.8491 209.471 594.057 290.839 609.357 234.785" stroke="#FFD700" stroke-width="2.78182" stroke-linecap="round" stroke-miterlimit="10" fill="none" transform="matrix(1 0 0 1.00116 126 332)"/><path d="M427.983 266.915 448.985 243.687" stroke="#FFD700" stroke-width="2.78182" stroke-linecap="round" stroke-miterlimit="10" fill="none" transform="matrix(1 0 0 1.00116 126 332)"/><path d="M440.779 268.724 461.921 245.495" stroke="#FFD700" stroke-width="2.78182" stroke-linecap="round" stroke-miterlimit="10" fill="none" transform="matrix(1 0 0 1.00116 126 332)"/><path d="M453.297 268.863 474.439 245.635" stroke="#FFD700" stroke-width="2.78182" stroke-linecap="round" stroke-miterlimit="10" fill="none" transform="matrix(1 0 0 1.00116 126 332)"/><path d="M8.06727 1.11273C39.5018 22.6718 71.7709 67.5982 82.7591 104.04 82.8982 104.318 82.7591 104.735 82.4809 104.875 82.2027 104.875 82.0636 104.875 81.9245 104.735 64.3991 81.5073 42.5618 51.6027 25.5927 27.6791 20.8636 21.42 11.8227 8.34545 7.23273 1.80818 6.95455 1.39091 7.51091 0.695455 8.06727 1.11273 7.92818 0.973636 8.06727 1.11273 8.06727 1.11273L8.06727 1.11273Z" stroke="#FFD700" stroke-width="0.695455" stroke-miterlimit="10" fill="#FFD700" transform="matrix(1 0 0 1.00116 126 332)"/><path d="M0.973636 113.359C9.73636 74.97 39.6409 26.4273 69.8236 1.11273 70.1018 0.834545 70.5191 0.695455 70.7973 1.11273 70.9364 1.25182 70.9364 1.53 70.7973 1.66909 55.4973 27.54 35.6073 60.3655 19.4727 86.0973 15.1609 93.0518 6.39818 106.961 1.94727 113.915 1.66909 114.333 0.834545 114.055 0.973636 113.359 0.973636 113.498 0.973636 113.359 0.973636 113.359L0.973636 113.359Z" stroke="#FFD700" stroke-width="0.695455" stroke-miterlimit="10" fill="#FFD700" transform="matrix(1 0 0 1.00116 126 332)"/><path d="M201.96 117.671C195.979 110.16 189.998 102.927 183.6 95.9727 175.533 86.9318 167.048 77.7518 158.564 68.7109 166.909 58.14 174.698 48.4036 180.262 41.1709 180.679 40.7536 180.54 40.3364 180.262 39.9191L149.801 8.06727C149.801 8.06727 149.801 8.06727 149.801 8.06727 149.801 8.06727 149.801 8.06727 149.801 8.06727 149.662 7.92818 149.662 7.92818 149.523 7.78909 149.384 7.65 149.384 7.65 149.245 7.51091 149.105 7.37182 149.105 7.37182 148.966 7.23273 148.966 7.23273 148.966 7.23273 148.966 7.23273 148.966 7.23273 148.966 7.23273 148.966 7.23273 148.966 7.23273 148.966 7.23273 148.966 7.23273 148.966 7.23273 148.966 7.23273 148.827 7.09364 148.827 7.09364 148.827 7.09364 148.827 7.09364L148.827 7.09364 143.125 1.11273C142.568 0.556364 141.734 0.695455 141.316 1.25182L137.144 8.48454 137.144 8.48454C137.144 8.62364 137.005 8.62364 137.005 8.76273 137.005 8.76273 136.865 8.90182 136.865 8.90182 136.865 8.90182 136.865 9.04091 136.726 9.04091 136.726 9.04091 136.726 9.18 136.587 9.18 136.587 9.31909 136.448 9.31909 136.448 9.45818 136.448 9.45818 136.448 9.45818 136.309 9.59727 136.309 9.59727 136.309 9.73636 136.17 9.73636 136.17 9.73636 136.17 9.73636 136.17 9.73636 136.17 9.73636 136.17 9.87545 136.031 9.87545 136.031 9.87545 136.031 9.87545 136.031 9.87545 136.031 9.87545 136.031 9.87545 136.031 9.87545L117.81 41.1709C117.532 41.5882 117.532 42.1445 117.949 42.4227 126.851 50.6291 137.144 60.0873 147.854 69.8236 137.283 85.5409 127.129 101.536 117.81 117.81 117.671 117.949 117.671 118.366 118.227 118.645 118.505 118.784 118.923 118.784 119.062 118.505 127.546 107.795 140.76 91.1045 153.417 74.97 170.108 90.27 187.355 105.987 201.125 118.505 201.265 118.645 201.543 118.645 201.821 118.505 202.238 118.366 202.238 117.949 201.96 117.671ZM152.722 62.73C146.741 56.61 140.76 50.49 134.918 44.6482 133.388 43.1182 131.858 41.7273 130.328 40.1973 134.918 32.9645 139.369 25.4536 143.82 18.0818 147.436 21.8373 151.053 25.4536 153.556 27.9573 158.146 32.5473 162.875 37.1373 167.465 41.7273 162.597 48.5427 157.59 55.6364 152.722 62.73Z" stroke="#FFD700" stroke-width="1.39091" stroke-miterlimit="10" fill="#FFD700" transform="matrix(1 0 0 1.00116 126 332)"/><path d="M235.203 115.724C247.025 109.325 260.795 101.258 272.34 94.7209L284.163 88.1836 283.885 94.1645C277.347 90.6873 268.028 85.5409 261.352 81.9245 253.841 77.7518 246.469 73.5791 238.958 69.4064 235.481 67.5982 235.759 62.1736 239.375 60.6436 253.424 53.4109 269.002 45.6218 283.189 38.9455L282.215 48.4036C265.942 36.0245 248.834 23.0891 232.699 10.4318L240.766 6.39818C240.071 42.2836 236.872 79.56 235.203 115.724L235.203 115.724ZM235.203 115.724C233.534 80.1164 231.03 41.8664 230.752 6.25909 230.613 2.08636 235.62-0.417273 238.819 2.22545 247.304 8.34545 255.51 14.6045 263.995 20.5855L276.374 29.9045C280.546 32.9645 284.719 36.1636 288.753 39.3627 291.256 41.1709 291.674 44.6482 289.865 47.1518 289.309 47.8473 288.614 48.4036 287.918 48.8209 280.546 52.4373 273.314 55.9145 265.803 59.3918 260.239 62.0345 249.251 67.1809 243.687 69.8236L244.105 61.0609C254.675 67.5982 266.081 74.8309 276.652 81.3682 280.407 83.7327 284.024 86.0973 287.64 88.4618 289.865 89.8527 289.587 93.33 287.223 94.3036 270.81 101.536 251.615 108.769 235.203 115.724L235.203 115.724Z" stroke="#FFD700" stroke-width="1.39091" stroke-miterlimit="10" fill="#FFD700" transform="matrix(1 0 0 1.00116 126 332)"/><path d="M326.585 106.683C319.214 81.3682 317.405 55.2191 317.127 28.9309 317.127 22.8109 317.266 16.1345 317.545 10.2927 317.684 2.22545 327.837-1.80818 333.262 3.89455 345.919 16.2736 358.298 29.4873 368.73 43.9527 370.26 46.0391 371.79 48.4036 373.181 50.6291 373.459 51.1855 372.764 51.7418 372.346 51.3245L360.802 41.4491C353.013 34.7727 334.375 18.7773 326.307 11.8227L327.976 10.9882C327.976 19.0555 328.115 26.9836 327.976 34.7727 327.976 46.7345 327.837 70.6582 327.698 82.62 327.698 90.5482 327.559 98.6155 327.42 106.405 327.42 106.683 327.142 106.961 326.864 106.961 326.725 106.961 326.585 106.822 326.585 106.683L326.585 106.683 326.585 106.683Z" stroke="#FFD700" stroke-width="1.39091" stroke-miterlimit="10" fill="#FFD700" transform="matrix(1 0 0 1.00116 126 332)"/><path d="M354.96 76.3609C342.859 79.6991 330.063 72.3273 327.281 59.8091 326.864 57.8618 326.446 55.3582 326.585 52.8545 326.585 52.5764 326.864 52.4373 327.003 52.4373 332.01 55.6364 337.156 59.9482 341.607 63.5645 345.085 66.3464 348.84 69.5455 352.039 72.4664L355.377 75.5264C355.655 75.8045 355.516 76.2218 355.238 76.2218 355.516 76.2218 354.96 76.3609 354.96 76.3609L354.96 76.3609Z" stroke="#FFD700" stroke-width="1.39091" stroke-miterlimit="10" fill="#FFD700" transform="matrix(1 0 0 1.00116 126 332)"/><path d="M420.055 117.254C407.397 84.9845 407.536 34.4945 420.055 2.22545 420.194 1.94727 420.472 1.53 420.889 1.66909 421.028 1.80818 421.167 1.94727 421.167 2.22545 421.724 28.5136 421.724 62.0345 421.585 88.3227 421.585 95.5555 421.445 109.882 421.167 117.115 421.167 117.81 420.333 117.949 420.055 117.254 420.055 117.393 420.055 117.254 420.055 117.254L420.055 117.254Z" stroke="#FFD700" stroke-width="1.39091" stroke-miterlimit="10" fill="#FFD700" transform="matrix(1 0 0 1.00116 126 332)"/><path d="M395.157 43.8136C416.299 41.31 440.501 55.2191 449.125 74.6918L449.264 74.97C449.403 75.2482 449.264 75.5264 448.985 75.6655 448.846 75.6655 448.707 75.6655 448.568 75.6655 445.091 73.8573 438.275 70.2409 434.937 68.2936 423.671 62.0345 412.265 55.4973 401.277 48.96L394.601 44.7873C394.184 44.5091 394.323 43.9527 394.74 43.8136 394.74 43.9527 395.157 43.8136 395.157 43.8136L395.157 43.8136Z" stroke="#FFD700" stroke-width="1.39091" stroke-miterlimit="10" fill="#FFD700" transform="matrix(1 0 0 1.00116 126 332)"/><path d="M491.13 118.227C478.473 85.5409 478.612 34.6336 491.13 1.80818 491.269 1.53 491.547 1.11273 491.965 1.25182 492.104 1.39091 492.243 1.53 492.243 1.80818 492.799 28.3745 492.799 62.3127 492.66 89.0182 492.66 96.2509 492.521 110.855 492.243 118.088 492.243 118.645 491.408 118.784 491.13 118.227 491.269 118.227 491.13 118.227 491.13 118.227L491.13 118.227Z" stroke="#FFD700" stroke-width="1.39091" stroke-miterlimit="10" fill="#FFD700" transform="matrix(1 0 0 1.00116 126 332)"/><path d="M543.706 115.167C538.699 89.5745 536.613 63.4255 535.222 37.2764 534.805 29.6264 534.665 19.0555 534.387 11.2664 534.248 5.84182 538.56 1.39091 543.845 1.25182 545.793 1.25182 547.74 1.80818 549.27 2.78182 554.277 5.70273 559.285 8.62364 564.153 11.6836 571.385 15.9955 579.175 21.0027 586.268 25.5927 593.362 30.3218 601.012 35.3291 607.966 40.1973 610.47 41.7273 612.278 44.37 612 47.1518L611.165 63.8427C610.192 77.7518 608.94 91.8 606.993 105.709 606.575 108.491 606.158 111.412 605.602 114.194 605.463 114.75 604.628 114.889 604.489 114.055 603.933 97.3636 603.098 63.9818 602.681 47.2909L603.098 48.1255C585.573 37.5545 560.815 22.8109 543.567 12.24L545.236 11.2664C545.236 28.5136 545.097 72.4664 544.958 89.1573L544.68 115.167C544.68 115.445 544.402 115.724 544.124 115.724 543.985 115.724 543.706 115.445 543.706 115.167L543.706 115.167Z" stroke="#FFD700" stroke-width="1.39091" stroke-miterlimit="10" fill="#FFD700" transform="matrix(1 0 0 1.00116 126 332)"/></g></svg>